<mxfile host="app.diagrams.net" agent="Mozilla/5.0 (Windows NT 10.0; Win64; x64) AppleWebKit/537.36 (KHTML, like Gecko) Chrome/131.0.0.0 Safari/537.36" version="24.9.3">
  <diagram name="Page-1" id="9xTL8JW_pF0Zao5JqkRH">
    <mxGraphModel dx="1941" dy="600" grid="1" gridSize="10" guides="1" tooltips="1" connect="1" arrows="1" fold="1" page="1" pageScale="1" pageWidth="827" pageHeight="1169" math="0" shadow="0">
      <root>
        <mxCell id="0" />
        <mxCell id="1" parent="0" />
        <mxCell id="jKfGHm6Wn0UQcCkNIMik-2" value="" style="rounded=0;whiteSpace=wrap;html=1;" parent="1" vertex="1">
          <mxGeometry x="100" y="80" width="90" height="40" as="geometry" />
        </mxCell>
        <mxCell id="jKfGHm6Wn0UQcCkNIMik-3" value="" style="rounded=0;whiteSpace=wrap;html=1;" parent="1" vertex="1">
          <mxGeometry x="610" y="70" width="90" height="40" as="geometry" />
        </mxCell>
        <mxCell id="jKfGHm6Wn0UQcCkNIMik-7" value="" style="rounded=0;whiteSpace=wrap;html=1;" parent="1" vertex="1">
          <mxGeometry x="630" y="270" width="90" height="40" as="geometry" />
        </mxCell>
        <mxCell id="jKfGHm6Wn0UQcCkNIMik-9" value="" style="rounded=0;whiteSpace=wrap;html=1;" parent="1" vertex="1">
          <mxGeometry x="650" y="460" width="90" height="40" as="geometry" />
        </mxCell>
        <mxCell id="jKfGHm6Wn0UQcCkNIMik-10" value="" style="rounded=0;whiteSpace=wrap;html=1;" parent="1" vertex="1">
          <mxGeometry x="100" y="440" width="90" height="40" as="geometry" />
        </mxCell>
        <mxCell id="jKfGHm6Wn0UQcCkNIMik-11" value="" style="rounded=0;whiteSpace=wrap;html=1;" parent="1" vertex="1">
          <mxGeometry x="80" y="250" width="90" height="40" as="geometry" />
        </mxCell>
        <mxCell id="jKfGHm6Wn0UQcCkNIMik-20" value="" style="rhombus;whiteSpace=wrap;html=1;" parent="1" vertex="1">
          <mxGeometry x="470" y="260" width="80" height="80" as="geometry" />
        </mxCell>
        <mxCell id="jKfGHm6Wn0UQcCkNIMik-21" value="" style="rhombus;whiteSpace=wrap;html=1;" parent="1" vertex="1">
          <mxGeometry x="334" y="270" width="80" height="80" as="geometry" />
        </mxCell>
        <mxCell id="jKfGHm6Wn0UQcCkNIMik-23" value="" style="rhombus;whiteSpace=wrap;html=1;" parent="1" vertex="1">
          <mxGeometry x="460" y="170" width="80" height="80" as="geometry" />
        </mxCell>
        <mxCell id="jKfGHm6Wn0UQcCkNIMik-24" value="" style="rhombus;whiteSpace=wrap;html=1;" parent="1" vertex="1">
          <mxGeometry x="310" y="150" width="80" height="80" as="geometry" />
        </mxCell>
        <mxCell id="jKfGHm6Wn0UQcCkNIMik-27" value="" style="ellipse;whiteSpace=wrap;html=1;" parent="1" vertex="1">
          <mxGeometry x="120" y="40" width="70" height="20" as="geometry" />
        </mxCell>
        <mxCell id="jKfGHm6Wn0UQcCkNIMik-28" value="" style="ellipse;whiteSpace=wrap;html=1;" parent="1" vertex="1">
          <mxGeometry x="10" y="40" width="70" height="20" as="geometry" />
        </mxCell>
        <mxCell id="jKfGHm6Wn0UQcCkNIMik-29" value="" style="ellipse;whiteSpace=wrap;html=1;" parent="1" vertex="1">
          <mxGeometry x="-10" y="90" width="70" height="20" as="geometry" />
        </mxCell>
        <mxCell id="jKfGHm6Wn0UQcCkNIMik-30" value="" style="ellipse;whiteSpace=wrap;html=1;" parent="1" vertex="1">
          <mxGeometry y="150" width="70" height="20" as="geometry" />
        </mxCell>
        <mxCell id="jKfGHm6Wn0UQcCkNIMik-31" value="" style="ellipse;whiteSpace=wrap;html=1;" parent="1" vertex="1">
          <mxGeometry x="210" y="40" width="70" height="20" as="geometry" />
        </mxCell>
        <mxCell id="jKfGHm6Wn0UQcCkNIMik-32" value="" style="ellipse;whiteSpace=wrap;html=1;" parent="1" vertex="1">
          <mxGeometry x="90" y="150" width="70" height="20" as="geometry" />
        </mxCell>
        <mxCell id="jKfGHm6Wn0UQcCkNIMik-34" value="" style="ellipse;whiteSpace=wrap;html=1;" parent="1" vertex="1">
          <mxGeometry x="720" y="110" width="70" height="20" as="geometry" />
        </mxCell>
        <mxCell id="jKfGHm6Wn0UQcCkNIMik-35" value="" style="ellipse;whiteSpace=wrap;html=1;" parent="1" vertex="1">
          <mxGeometry x="730" y="60" width="70" height="20" as="geometry" />
        </mxCell>
        <mxCell id="jKfGHm6Wn0UQcCkNIMik-36" value="" style="ellipse;whiteSpace=wrap;html=1;" parent="1" vertex="1">
          <mxGeometry x="680" y="20" width="70" height="20" as="geometry" />
        </mxCell>
        <mxCell id="jKfGHm6Wn0UQcCkNIMik-37" value="" style="ellipse;whiteSpace=wrap;html=1;" parent="1" vertex="1">
          <mxGeometry x="590" y="130" width="70" height="20" as="geometry" />
        </mxCell>
        <mxCell id="jKfGHm6Wn0UQcCkNIMik-38" value="" style="ellipse;whiteSpace=wrap;html=1;" parent="1" vertex="1">
          <mxGeometry x="500" y="110" width="70" height="20" as="geometry" />
        </mxCell>
        <mxCell id="jKfGHm6Wn0UQcCkNIMik-39" value="" style="ellipse;whiteSpace=wrap;html=1;" parent="1" vertex="1">
          <mxGeometry x="500" y="70" width="70" height="20" as="geometry" />
        </mxCell>
        <mxCell id="jKfGHm6Wn0UQcCkNIMik-40" value="" style="ellipse;whiteSpace=wrap;html=1;" parent="1" vertex="1">
          <mxGeometry x="580" y="20" width="70" height="20" as="geometry" />
        </mxCell>
        <mxCell id="jKfGHm6Wn0UQcCkNIMik-41" value="" style="ellipse;whiteSpace=wrap;html=1;" parent="1" vertex="1">
          <mxGeometry x="10" y="310" width="70" height="20" as="geometry" />
        </mxCell>
        <mxCell id="jKfGHm6Wn0UQcCkNIMik-42" value="" style="ellipse;whiteSpace=wrap;html=1;" parent="1" vertex="1">
          <mxGeometry x="90" y="320" width="70" height="20" as="geometry" />
        </mxCell>
        <mxCell id="jKfGHm6Wn0UQcCkNIMik-43" value="" style="ellipse;whiteSpace=wrap;html=1;" parent="1" vertex="1">
          <mxGeometry x="180" y="290" width="70" height="20" as="geometry" />
        </mxCell>
        <mxCell id="jKfGHm6Wn0UQcCkNIMik-44" value="" style="ellipse;whiteSpace=wrap;html=1;" parent="1" vertex="1">
          <mxGeometry x="190" y="240" width="70" height="20" as="geometry" />
        </mxCell>
        <mxCell id="jKfGHm6Wn0UQcCkNIMik-45" value="" style="ellipse;whiteSpace=wrap;html=1;" parent="1" vertex="1">
          <mxGeometry x="100" y="220" width="70" height="20" as="geometry" />
        </mxCell>
        <mxCell id="jKfGHm6Wn0UQcCkNIMik-46" value="" style="ellipse;whiteSpace=wrap;html=1;" parent="1" vertex="1">
          <mxGeometry y="260" width="70" height="20" as="geometry" />
        </mxCell>
        <mxCell id="jKfGHm6Wn0UQcCkNIMik-48" value="" style="ellipse;whiteSpace=wrap;html=1;" parent="1" vertex="1">
          <mxGeometry x="590" y="220" width="70" height="20" as="geometry" />
        </mxCell>
        <mxCell id="jKfGHm6Wn0UQcCkNIMik-49" value="" style="ellipse;whiteSpace=wrap;html=1;" parent="1" vertex="1">
          <mxGeometry x="560" y="480" width="70" height="20" as="geometry" />
        </mxCell>
        <mxCell id="jKfGHm6Wn0UQcCkNIMik-50" value="" style="ellipse;whiteSpace=wrap;html=1;" parent="1" vertex="1">
          <mxGeometry x="750" y="420" width="70" height="20" as="geometry" />
        </mxCell>
        <mxCell id="jKfGHm6Wn0UQcCkNIMik-51" value="" style="ellipse;whiteSpace=wrap;html=1;" parent="1" vertex="1">
          <mxGeometry x="770" y="510" width="70" height="20" as="geometry" />
        </mxCell>
        <mxCell id="jKfGHm6Wn0UQcCkNIMik-52" value="" style="ellipse;whiteSpace=wrap;html=1;" parent="1" vertex="1">
          <mxGeometry x="730" y="560" width="70" height="20" as="geometry" />
        </mxCell>
        <mxCell id="jKfGHm6Wn0UQcCkNIMik-53" value="" style="ellipse;whiteSpace=wrap;html=1;" parent="1" vertex="1">
          <mxGeometry x="630" y="565" width="70" height="20" as="geometry" />
        </mxCell>
        <mxCell id="jKfGHm6Wn0UQcCkNIMik-54" value="" style="ellipse;whiteSpace=wrap;html=1;" parent="1" vertex="1">
          <mxGeometry x="530" y="565" width="70" height="20" as="geometry" />
        </mxCell>
        <mxCell id="jKfGHm6Wn0UQcCkNIMik-55" value="" style="ellipse;whiteSpace=wrap;html=1;" parent="1" vertex="1">
          <mxGeometry x="210" y="450" width="70" height="20" as="geometry" />
        </mxCell>
        <mxCell id="jKfGHm6Wn0UQcCkNIMik-56" value="" style="ellipse;whiteSpace=wrap;html=1;" parent="1" vertex="1">
          <mxGeometry x="160" y="520" width="70" height="20" as="geometry" />
        </mxCell>
        <mxCell id="jKfGHm6Wn0UQcCkNIMik-57" value="" style="ellipse;whiteSpace=wrap;html=1;" parent="1" vertex="1">
          <mxGeometry x="100" y="560" width="70" height="20" as="geometry" />
        </mxCell>
        <mxCell id="jKfGHm6Wn0UQcCkNIMik-58" value="" style="ellipse;whiteSpace=wrap;html=1;" parent="1" vertex="1">
          <mxGeometry x="30" y="530" width="70" height="20" as="geometry" />
        </mxCell>
        <mxCell id="jKfGHm6Wn0UQcCkNIMik-59" value="" style="ellipse;whiteSpace=wrap;html=1;" parent="1" vertex="1">
          <mxGeometry x="-10" y="470" width="70" height="20" as="geometry" />
        </mxCell>
        <mxCell id="jKfGHm6Wn0UQcCkNIMik-60" value="" style="ellipse;whiteSpace=wrap;html=1;" parent="1" vertex="1">
          <mxGeometry y="420" width="70" height="20" as="geometry" />
        </mxCell>
        <mxCell id="jKfGHm6Wn0UQcCkNIMik-63" value="" style="ellipse;whiteSpace=wrap;html=1;" parent="1" vertex="1">
          <mxGeometry x="670" y="230" width="70" height="20" as="geometry" />
        </mxCell>
        <mxCell id="jKfGHm6Wn0UQcCkNIMik-64" value="" style="ellipse;whiteSpace=wrap;html=1;" parent="1" vertex="1">
          <mxGeometry x="550" y="260" width="70" height="20" as="geometry" />
        </mxCell>
        <mxCell id="jKfGHm6Wn0UQcCkNIMik-65" value="" style="ellipse;whiteSpace=wrap;html=1;" parent="1" vertex="1">
          <mxGeometry x="720" y="280" width="70" height="20" as="geometry" />
        </mxCell>
        <mxCell id="jKfGHm6Wn0UQcCkNIMik-66" value="" style="ellipse;whiteSpace=wrap;html=1;" parent="1" vertex="1">
          <mxGeometry x="690" y="350" width="70" height="20" as="geometry" />
        </mxCell>
        <mxCell id="jKfGHm6Wn0UQcCkNIMik-67" value="" style="ellipse;whiteSpace=wrap;html=1;" parent="1" vertex="1">
          <mxGeometry x="590" y="360" width="70" height="20" as="geometry" />
        </mxCell>
        <mxCell id="jKfGHm6Wn0UQcCkNIMik-68" value="" style="endArrow=none;html=1;rounded=0;" parent="1" edge="1">
          <mxGeometry width="50" height="50" relative="1" as="geometry">
            <mxPoint x="390" y="340" as="sourcePoint" />
            <mxPoint x="440" y="290" as="targetPoint" />
          </mxGeometry>
        </mxCell>
        <mxCell id="jKfGHm6Wn0UQcCkNIMik-77" value="" style="endArrow=none;html=1;rounded=0;" parent="1" edge="1">
          <mxGeometry width="50" height="50" relative="1" as="geometry">
            <mxPoint x="390" y="340" as="sourcePoint" />
            <mxPoint x="440" y="290" as="targetPoint" />
          </mxGeometry>
        </mxCell>
        <mxCell id="jKfGHm6Wn0UQcCkNIMik-79" value="" style="endArrow=none;html=1;rounded=0;" parent="1" edge="1">
          <mxGeometry width="50" height="50" relative="1" as="geometry">
            <mxPoint x="390" y="340" as="sourcePoint" />
            <mxPoint x="440" y="290" as="targetPoint" />
          </mxGeometry>
        </mxCell>
        <mxCell id="jKfGHm6Wn0UQcCkNIMik-80" value="" style="endArrow=none;html=1;rounded=0;" parent="1" edge="1">
          <mxGeometry width="50" height="50" relative="1" as="geometry">
            <mxPoint x="390" y="340" as="sourcePoint" />
            <mxPoint x="440" y="290" as="targetPoint" />
          </mxGeometry>
        </mxCell>
        <mxCell id="jKfGHm6Wn0UQcCkNIMik-82" value="" style="endArrow=none;html=1;rounded=0;" parent="1" edge="1">
          <mxGeometry width="50" height="50" relative="1" as="geometry">
            <mxPoint x="390" y="340" as="sourcePoint" />
            <mxPoint x="440" y="290" as="targetPoint" />
          </mxGeometry>
        </mxCell>
        <mxCell id="jKfGHm6Wn0UQcCkNIMik-83" value="" style="endArrow=none;html=1;rounded=0;exitX=1;exitY=1;exitDx=0;exitDy=0;" parent="1" source="jKfGHm6Wn0UQcCkNIMik-29" edge="1">
          <mxGeometry width="50" height="50" relative="1" as="geometry">
            <mxPoint x="50" y="150" as="sourcePoint" />
            <mxPoint x="100" y="100" as="targetPoint" />
          </mxGeometry>
        </mxCell>
        <mxCell id="jKfGHm6Wn0UQcCkNIMik-84" value="" style="endArrow=none;html=1;rounded=0;entryX=0.422;entryY=-0.075;entryDx=0;entryDy=0;entryPerimeter=0;" parent="1" source="jKfGHm6Wn0UQcCkNIMik-27" target="jKfGHm6Wn0UQcCkNIMik-2" edge="1">
          <mxGeometry width="50" height="50" relative="1" as="geometry">
            <mxPoint x="60" y="117" as="sourcePoint" />
            <mxPoint x="130" y="90" as="targetPoint" />
          </mxGeometry>
        </mxCell>
        <mxCell id="jKfGHm6Wn0UQcCkNIMik-85" value="" style="endArrow=none;html=1;rounded=0;entryX=1;entryY=0;entryDx=0;entryDy=0;" parent="1" target="jKfGHm6Wn0UQcCkNIMik-2" edge="1">
          <mxGeometry width="50" height="50" relative="1" as="geometry">
            <mxPoint x="210" y="53" as="sourcePoint" />
            <mxPoint x="199" y="70" as="targetPoint" />
          </mxGeometry>
        </mxCell>
        <mxCell id="jKfGHm6Wn0UQcCkNIMik-86" value="" style="endArrow=none;html=1;rounded=0;entryX=0.422;entryY=-0.075;entryDx=0;entryDy=0;entryPerimeter=0;" parent="1" edge="1">
          <mxGeometry width="50" height="50" relative="1" as="geometry">
            <mxPoint x="80" y="130" as="sourcePoint" />
            <mxPoint x="69" y="147" as="targetPoint" />
          </mxGeometry>
        </mxCell>
        <mxCell id="jKfGHm6Wn0UQcCkNIMik-87" value="" style="endArrow=none;html=1;rounded=0;entryX=1;entryY=0;entryDx=0;entryDy=0;exitX=0.75;exitY=1;exitDx=0;exitDy=0;" parent="1" source="jKfGHm6Wn0UQcCkNIMik-2" target="jKfGHm6Wn0UQcCkNIMik-32" edge="1">
          <mxGeometry width="50" height="50" relative="1" as="geometry">
            <mxPoint x="179" y="90" as="sourcePoint" />
            <mxPoint x="168" y="107" as="targetPoint" />
          </mxGeometry>
        </mxCell>
      </root>
    </mxGraphModel>
  </diagram>
</mxfile>
